<!-- Generator: Adobe Illustrator 21.0.2, SVG Export Plug-In  -->
<svg version="1.1"
	 xmlns="http://www.w3.org/2000/svg" xmlns:xlink="http://www.w3.org/1999/xlink" xmlns:a="http://ns.adobe.com/AdobeSVGViewerExtensions/3.0/"
	 x="0px" y="0px" width="512px" height="511.996px" viewBox="0 0 512 511.996" style="enable-background:new 0 0 512 511.996;"
	 xml:space="preserve">
<style type="text/css">
	.st0{fill:#04558C;}
</style>
<defs>
</defs>
<g>
	<path class="st0" d="M503.467,511.996H460.8c-4.719,0-8.533-3.814-8.533-8.533V204.796H59.733v298.667
		c0,4.719-3.823,8.533-8.533,8.533H8.533c-4.71,0-8.533-3.814-8.533-8.533v-358.4c0-3.106,1.69-5.973,4.412-7.467L251.878,1.062
		c2.637-1.459,5.837-1.408,8.439,0.111L507.785,146.24c2.611,1.527,4.215,4.326,4.215,7.356v349.867
		C512,508.181,508.186,511.996,503.467,511.996z M469.333,494.929h25.6V158.485L255.872,18.342L17.067,150.097v344.832h25.6V196.262
		c0-4.71,3.823-8.533,8.533-8.533h409.6c4.719,0,8.533,3.823,8.533,8.533V494.929z"/>
	<path class="st0" d="M426.667,511.996h-102.4c-4.719,0-8.533-3.814-8.533-8.533v-102.4c0-4.719,3.814-8.533,8.533-8.533h102.4
		c4.719,0,8.533,3.814,8.533,8.533v102.4C435.2,508.181,431.386,511.996,426.667,511.996z M332.8,494.929h85.333v-85.333H332.8
		V494.929z"/>
	<path class="st0" d="M392.533,443.729H358.4c-4.719,0-8.533-3.814-8.533-8.533v-34.133h17.067v25.6H384v-25.6h17.067v34.133
		C401.067,439.914,397.252,443.729,392.533,443.729z"/>
	<path class="st0" d="M324.267,511.996h-102.4c-4.71,0-8.533-3.814-8.533-8.533v-102.4c0-4.719,3.823-8.533,8.533-8.533h102.4
		c4.719,0,8.533,3.814,8.533,8.533v102.4C332.8,508.181,328.986,511.996,324.267,511.996z M230.4,494.929h85.333v-85.333H230.4
		V494.929z"/>
	<path class="st0" d="M290.133,443.729H256c-4.71,0-8.533-3.814-8.533-8.533v-34.133h17.067v25.6H281.6v-25.6h17.067v34.133
		C298.667,439.914,294.852,443.729,290.133,443.729z"/>
	<path class="st0" d="M426.667,409.596h-102.4c-4.719,0-8.533-3.814-8.533-8.533v-102.4c0-4.719,3.814-8.533,8.533-8.533h102.4
		c4.719,0,8.533,3.814,8.533,8.533v102.4C435.2,405.781,431.386,409.596,426.667,409.596z M332.8,392.529h85.333v-85.333H332.8
		V392.529z"/>
	<path class="st0" d="M392.533,341.329H358.4c-4.719,0-8.533-3.814-8.533-8.533v-34.133h17.067v25.6H384v-25.6h17.067v34.133
		C401.067,337.514,397.252,341.329,392.533,341.329z"/>
	<rect x="51.2" y="255.996" class="st0" width="409.6" height="17.067"/>
	<rect x="51.2" y="221.862" class="st0" width="409.6" height="17.067"/>
	<path class="st0" d="M298.667,170.662h-85.333c-4.71,0-8.533-3.823-8.533-8.533v-34.133c0-4.71,3.823-8.533,8.533-8.533h85.333
		c4.719,0,8.533,3.823,8.533,8.533v34.133C307.2,166.839,303.386,170.662,298.667,170.662z M221.867,153.596h68.267v-17.067h-68.267
		V153.596z"/>
</g>
</svg>