<!-- Generator: Adobe Illustrator 21.0.2, SVG Export Plug-In  -->
<svg version="1.1"
	 xmlns="http://www.w3.org/2000/svg" xmlns:xlink="http://www.w3.org/1999/xlink" xmlns:a="http://ns.adobe.com/AdobeSVGViewerExtensions/3.0/"
	 x="0px" y="0px" width="512px" height="290.133px" viewBox="0 0 512 290.133" style="enable-background:new 0 0 512 290.133;"
	 xml:space="preserve">
<style type="text/css">
	.st0{fill:#04558C;}
</style>
<defs>
</defs>
<g>
	<path class="st0" d="M503.467,273.067H460.8V256h34.133v-53.956l-37.299-14.916c-2.176-0.87-3.891-2.586-4.762-4.762
		l-14.916-37.299h-45.423V256H409.6v17.067H384c-4.719,0-8.533-3.814-8.533-8.533v-128c0-4.71,3.814-8.533,8.533-8.533h59.733
		c3.49,0,6.622,2.125,7.927,5.359l15.71,39.27l39.27,15.71c3.234,1.306,5.359,4.437,5.359,7.927v68.267
		C512,269.252,508.186,273.067,503.467,273.067z"/>
	<path class="st0" d="M435.2,290.133c-18.825,0-34.133-15.309-34.133-34.133s15.309-34.133,34.133-34.133
		c18.825,0,34.133,15.309,34.133,34.133S454.025,290.133,435.2,290.133z M435.2,238.933c-9.412,0-17.067,7.654-17.067,17.067
		c0,9.412,7.654,17.067,17.067,17.067c9.412,0,17.067-7.654,17.067-17.067C452.267,246.588,444.612,238.933,435.2,238.933z"/>
	<path class="st0" d="M315.733,290.133c-18.825,0-34.133-15.309-34.133-34.133s15.309-34.133,34.133-34.133
		c18.825,0,34.133,15.309,34.133,34.133S334.558,290.133,315.733,290.133z M315.733,238.933c-9.412,0-17.067,7.654-17.067,17.067
		c0,9.412,7.654,17.067,17.067,17.067c9.412,0,17.067-7.654,17.067-17.067C332.8,246.588,325.146,238.933,315.733,238.933z"/>
	<path class="st0" d="M51.2,290.133c-18.825,0-34.133-15.309-34.133-34.133s15.309-34.133,34.133-34.133S85.333,237.175,85.333,256
		S70.025,290.133,51.2,290.133z M51.2,238.933c-9.412,0-17.067,7.654-17.067,17.067c0,9.412,7.654,17.067,17.067,17.067
		S68.267,265.412,68.267,256C68.267,246.588,60.612,238.933,51.2,238.933z"/>
	<path class="st0" d="M136.533,290.133c-18.825,0-34.133-15.309-34.133-34.133s15.309-34.133,34.133-34.133
		s34.133,15.309,34.133,34.133S155.358,290.133,136.533,290.133z M136.533,238.933c-9.412,0-17.067,7.654-17.067,17.067
		c0,9.412,7.654,17.067,17.067,17.067c9.412,0,17.067-7.654,17.067-17.067C153.6,246.588,145.946,238.933,136.533,238.933z"/>
	<path class="st0" d="M349.867,238.933H8.533c-4.71,0-8.533-3.814-8.533-8.533V76.8c0-4.71,3.823-8.533,8.533-8.533h341.333
		c4.719,0,8.533,3.823,8.533,8.533v153.6C358.4,235.119,354.586,238.933,349.867,238.933z M17.067,221.867h324.267V85.333H17.067
		V221.867z"/>
	<rect x="34.133" y="102.4" class="st0" width="17.067" height="102.4"/>
	<rect x="68.267" y="102.4" class="st0" width="17.067" height="102.4"/>
	<rect x="102.4" y="102.4" class="st0" width="17.067" height="102.4"/>
	<rect x="136.533" y="102.4" class="st0" width="17.067" height="102.4"/>
	<rect x="170.667" y="102.4" class="st0" width="17.067" height="102.4"/>
	<rect x="204.8" y="102.4" class="st0" width="17.067" height="102.4"/>
	<rect x="238.933" y="102.4" class="st0" width="17.067" height="102.4"/>
	<rect x="273.067" y="102.4" class="st0" width="17.067" height="102.4"/>
	<rect x="307.2" y="102.4" class="st0" width="17.067" height="102.4"/>
	<rect class="st0" width="25.6" height="17.067"/>
	<rect x="42.667" class="st0" width="76.8" height="17.067"/>
	<rect x="68.267" y="34.133" class="st0" width="128" height="17.067"/>
	<rect x="341.333" y="256" class="st0" width="42.667" height="17.067"/>
	<rect x="349.867" y="221.867" class="st0" width="34.133" height="17.067"/>
	<rect x="76.8" y="256" class="st0" width="34.133" height="17.067"/>
</g>
</svg>