<!-- Generator: Adobe Illustrator 21.0.2, SVG Export Plug-In  -->
<svg version="1.1"
	 xmlns="http://www.w3.org/2000/svg" xmlns:xlink="http://www.w3.org/1999/xlink" xmlns:a="http://ns.adobe.com/AdobeSVGViewerExtensions/3.0/"
	 x="0px" y="0px" width="483.098px" height="156.162px" viewBox="0 0 483.098 156.162"
	 style="enable-background:new 0 0 483.098 156.162;" xml:space="preserve">
<style type="text/css">
	.st0{fill:#04558C;}
	.st1{fill:#ED313F;}
</style>
<defs>
</defs>
<g>
	<path class="st0" d="M132.463,14.849L88.707,88.776L44.806,17.647C40.758,11.088,33.601,7.095,25.894,7.095H0v88.352
		c0,8.836,7.163,15.999,15.999,15.999h3.148v-77.87L59.09,99.569c4.218,6.968,11.77,11.225,19.915,11.225h14.163l48.192-78.502
		v57.613c0,11.896,9.644,21.54,21.54,21.54h15.165V7.095h-32.002C140.478,7.095,135.308,10.043,132.463,14.849z"/>
	<path class="st0" d="M342.304,55.835c0-0.673-0.018-1.343-0.054-2.016c-5.852,10.242-14.551,20.043-25.939,29.214
		c-14.094,11.33-30.645,20.181-47.58,25.549c0.285,0.002,0.569,0.004,0.852,0.004C309.681,108.587,342.304,84.922,342.304,55.835z"
		/>
	<path class="st0" d="M468.752,21.857l4.002-4.653l8.941-10.358h-129.72c0,8.29,6.721,15.011,15.011,15.011h58.053l-79.536,89.837
		h119.878c8.301,0,15.03-6.729,15.03-15.03h-76.224L468.752,21.857z"/>
	<path class="st0" d="M220.996,93.327c0.016,0.008,0.036,0,0.054,0c6.58,0,15.317-2.378,26.13-7.066
		c0.432-0.193,0.862-0.384,1.285-0.573c-8.067-7.215-12.784-18.145-12.761-29.905c0.01-5.928,1.196-11.61,3.526-16.889
		c5.776-13.061,17.403-21.167,30.352-21.167c0.02,0,0.04,0,0.06,0h0.002c0.33,0,0.661,0.004,0.991,0.026
		c17.258,0.545,31.033,15.327,32.639,34.34c11.306-9.565,19.637-19.162,24.252-27.955c-6.732-6.461-15.451-11.76-25.308-15.375
		c-4.891-1.791-9.961-3.154-15.069-4.051c-5.681-1.047-11.555-1.582-17.476-1.594c-0.068,0-0.137,0-0.203,0
		c-19.464,0-37.739,5.516-51.484,15.542c-13.602,9.923-20.829,23.083-21.138,37.046C196.844,55.847,195.241,79.671,220.996,93.327z"
		/>
	<path class="st1" d="M343.469,11.275"/>
	<path class="st1" d="M342,6.833c1.503-0.188,2.771-0.098,3.581,0.02c-2.775-2.284-5.55-4.569-8.325-6.853l-2.772,10.421
		c0.595-0.572,1.672-1.462,3.163-2.231l-0.159,3.53c-0.201,4.445-1.61,9.266-4.187,14.333c-5.49,10.936-16.123,22.861-30.746,34.477
		c-13.6,10.807-29.968,20.785-47.333,28.858c-1.779,0.84-3.588,1.646-5.398,2.449c-11.835,5.163-21.482,7.7-28.786,7.685
		c-13.576-0.117-16.253-9.137-16.734-13.722c-1.91-2.26-3.595-4.622-5.04-7.058c-1.739,5.753-1.582,10.58,0.474,14.392
		c6.759,12.514,26.116,17.761,50.501,13.688c21.444-3.58,44.13-13.986,62.243-28.552c13.67-11.008,23.167-22.787,28.227-35.013
		c7.126-17.23,3.5-30.627,1.612-35.588L342,6.833z"/>
	<g>
		<path class="st0" d="M0,129.857h3.523v22.532h11.96v3.168H0V129.857z"/>
		<path class="st0" d="M27.228,132.634c2.669-2.883,6.194-3.453,8.579-3.453c7.118,0,11.603,4.556,11.603,13.277
			c0,6.834-2.739,13.704-11.888,13.704c-8.756,0-11.603-6.229-11.603-13.277C23.919,139.967,24.417,135.659,27.228,132.634z
			 M29.934,150.787c1.459,1.816,3.665,2.35,5.694,2.35c2.101,0,4.2-0.57,5.696-2.35c2.099-2.562,2.313-6.62,2.313-8.364
			c0-5.837-1.922-10.251-7.795-10.251c-6.513,0-8.186,5.232-8.186,10.5C27.656,145.484,28.154,148.581,29.934,150.787z"/>
		<path class="st0" d="M77.169,136.264c-0.391-2.385-2.313-4.022-5.801-4.022c-2.42,0-4.449,0.641-5.801,2.171
			c-2.243,2.492-2.741,5.838-2.741,8.258c0,2.171,0.463,5.837,2.348,8.08c1.673,1.922,4.272,2.527,6.834,2.527
			c2.92,0,4.77-0.57,5.589-0.819v-7.617h-5.873v-2.954h9.433v12.672c-1.496,0.499-4.77,1.567-9.149,1.567
			c-4.733,0-7.51-1.353-9.326-3.204c-2.527-2.563-3.595-6.158-3.595-9.788c0-2.563,0.642-8.614,5.517-11.889
			c2.529-1.708,5.873-1.815,7.155-1.815c2.029,0,5.126,0.249,7.581,2.741c1.531,1.602,1.638,3.097,1.71,4.093H77.169z"/>
		<path class="st0" d="M100.912,122.454l-4.307,5.125h-2.313l2.918-5.125H100.912z M94.576,129.857h3.56v25.7h-3.56V129.857z"/>
		<path class="st0" d="M114.153,148.047c0.072,1.779,0.286,5.09,6.194,5.09c5.34,0,6.015-3.311,6.015-4.592
			c0-2.883-2.313-3.453-5.908-4.342c-3.916-0.961-5.659-1.389-6.976-2.278c-2.101-1.424-2.669-3.346-2.669-5.055
			c0-5.232,4.947-7.51,9.788-7.51c1.708,0,5.161,0.285,7.225,2.527c1.424,1.566,1.496,3.31,1.568,4.378h-3.702
			c-0.179-3.203-2.883-3.915-5.41-3.915c-3.56,0-5.696,1.602-5.696,4.164c0,2.278,1.496,3.061,4.628,3.809
			c6.122,1.566,6.798,1.708,8.293,2.705c2.385,1.566,2.562,4.058,2.562,5.125c0,4.556-3.558,8.009-10.144,8.009
			c-1.959,0-5.945-0.32-7.974-2.919c-1.459-1.886-1.494-3.95-1.494-5.196H114.153z"/>
		<path class="st0" d="M147.968,155.557v-22.674h-8.614v-3.026h20.752v3.026h-8.614v22.674H147.968z"/>
		<path class="st0" d="M170.607,129.857h3.56v25.7h-3.56V129.857z"/>
		<path class="st0" d="M203.105,136.798c-0.142-0.89-0.605-4.449-5.552-4.449c-6.194,0-7.297,6.336-7.297,10.607
			c0,4.841,1.389,10.073,7.262,10.073c1.566,0,3.06-0.392,4.163-1.531c0.926-0.996,1.14-2.1,1.247-2.705h3.914
			c-0.533,5.055-5.196,7.155-9.61,7.155c-9.04,0-10.785-7.973-10.785-12.957c0-5.41,2.101-13.49,11.248-13.49
			c3.63,0,8.756,1.46,9.219,7.297H203.105z"/>
		<path class="st0" d="M226.493,129.857h3.809l10.393,25.7h-3.879l-2.776-6.692h-11.925l-2.776,6.692h-3.665L226.493,129.857z
			 M223.254,145.982h9.717l-4.735-12.6L223.254,145.982z"/>
		<path class="st0" d="M274.545,129.857h3.809l10.393,25.7h-3.879l-2.776-6.692h-11.925l-2.776,6.692h-3.665L274.545,129.857z
			 M271.306,145.982h9.717l-4.735-12.6L271.306,145.982z"/>
		<path class="st0" d="M299.355,129.857h7.439c3.453,0,7.511,0,10.359,3.346c2.278,2.67,3.167,6.193,3.167,9.717
			c0,5.553-2.313,8.97-4.272,10.536c-2.527,2.1-5.694,2.1-9.468,2.1h-7.225V129.857z M302.915,152.638h3.488
			c2.455,0,5.019-0.142,6.727-1.423c3.274-2.456,3.381-6.656,3.381-8.151c0-0.961-0.07-5.339-2.492-8.009
			c-1.636-1.815-3.701-2.242-6.834-2.242h-4.27V152.638z"/>
		<path class="st0" d="M335.911,129.857v15.911c0,2.74,0.605,3.879,1.14,4.627c1.601,2.136,4.093,2.527,5.873,2.527
			c6.941,0,6.941-5.446,6.941-7.297v-15.769h3.451v15.84c0,1.388-0.035,4.271-2.099,6.834c-2.527,3.167-6.443,3.559-8.293,3.559
			c-2.42,0-6.692-0.676-9.077-4.093c-0.782-1.139-1.494-2.634-1.494-6.478v-15.662H335.911z"/>
		<path class="st0" d="M374.994,129.857h3.809l10.393,25.7h-3.879l-2.776-6.692h-11.925l-2.776,6.692h-3.665L374.994,129.857z
			 M371.755,145.982h9.717l-4.735-12.6L371.755,145.982z"/>
		<path class="st0" d="M400.053,129.857H405l12.637,21.251v-21.251h3.274v25.7h-4.556l-13.063-21.82v21.82h-3.239V129.857z"/>
		<path class="st0" d="M442.626,129.857h3.809l10.393,25.7h-3.879l-2.776-6.692h-11.925l-2.776,6.692h-3.665L442.626,129.857z
			 M439.387,145.982h9.717l-4.735-12.6L439.387,145.982z"/>
		<path class="st0" d="M467.615,129.857h3.523v22.532h11.96v3.168h-15.484V129.857z"/>
	</g>
</g>
</svg>