<!-- Generator: Adobe Illustrator 21.0.2, SVG Export Plug-In  -->
<svg version="1.1"
	 xmlns="http://www.w3.org/2000/svg" xmlns:xlink="http://www.w3.org/1999/xlink" xmlns:a="http://ns.adobe.com/AdobeSVGViewerExtensions/3.0/"
	 x="0px" y="0px" width="480px" height="480px" viewBox="0 0 480 480" style="enable-background:new 0 0 480 480;"
	 xml:space="preserve">
<style type="text/css">
	.st0{fill:#04558C;}
</style>
<defs>
</defs>
<g>
	<path class="st0" d="M472,224h-22.24L264,138.264V128h-36c-6.627,0-12-5.373-12-12c0-6.627,5.373-12,12-12l0,0h12
		c4.418,0,8-3.582,8-8V72h8c4.418,0,8-3.582,8-8V8c0-4.418-3.582-8-8-8h-32c-4.418,0-8,3.582-8,8v56c0,4.418,3.582,8,8,8h8v16h-4
		c-15.433-0.028-27.966,12.461-27.994,27.894c-0.017,9.631,4.926,18.592,13.082,23.714L30.24,224H8c-4.418,0-8,3.582-8,8v240
		c0,4.418,3.582,8,8,8h464c4.418,0,8-3.582,8-8V232C480,227.582,476.418,224,472,224z M232,16h16v40h-16V16z M240,144.8L411.576,224
		H68.424L240,144.8z M464,464H16V240h448V464z"/>
	<path class="st0" d="M40,448h400c4.418,0,8-3.582,8-8V264c0-4.418-3.582-8-8-8H40c-4.418,0-8,3.582-8,8v176
		C32,444.418,35.582,448,40,448z M48,272h384v160H48V272z"/>
	<rect x="72" y="288" class="st0" width="16" height="128"/>
	<rect x="104" y="288" class="st0" width="16" height="128"/>
	<rect x="136" y="288" class="st0" width="16" height="128"/>
	<rect x="168" y="288" class="st0" width="16" height="128"/>
	<rect x="200" y="288" class="st0" width="16" height="128"/>
	<rect x="232" y="288" class="st0" width="16" height="128"/>
	<rect x="264" y="288" class="st0" width="16" height="128"/>
	<rect x="296" y="288" class="st0" width="16" height="128"/>
	<rect x="328" y="288" class="st0" width="16" height="128"/>
	<rect x="360" y="288" class="st0" width="16" height="128"/>
	<rect x="392" y="288" class="st0" width="16" height="128"/>
</g>
</svg>