<!-- Generator: Adobe Illustrator 21.0.2, SVG Export Plug-In  -->
<svg version="1.1"
	 xmlns="http://www.w3.org/2000/svg" xmlns:xlink="http://www.w3.org/1999/xlink" xmlns:a="http://ns.adobe.com/AdobeSVGViewerExtensions/3.0/"
	 x="0px" y="0px" width="511.998px" height="511.997px" viewBox="0 0 511.998 511.997"
	 style="enable-background:new 0 0 511.998 511.997;" xml:space="preserve">
<style type="text/css">
	.st0{fill:#04558C;}
</style>
<defs>
</defs>
<g>
	<path class="st0" d="M256.013,452.278c-108.193,0-196.218-88.016-196.218-196.218c0-108.193,88.025-196.218,196.218-196.218
		S452.23,147.868,452.23,256.061C452.23,364.262,364.206,452.278,256.013,452.278z M256.013,76.905
		c-98.791,0-179.155,80.364-179.155,179.155c0,98.783,80.364,179.155,179.155,179.155s179.155-80.372,179.155-179.155
		C435.168,157.269,354.804,76.905,256.013,76.905z"/>
	<path class="st0" d="M256.013,418.153c-1.066,0-2.141-0.196-3.174-0.606l-42.656-17.062c-3.233-1.297-5.358-4.436-5.358-7.926
		v-38.092l-21.797-14.529c-2.372-1.587-3.796-4.249-3.796-7.098v-42.656c0-4.718,3.822-8.531,8.531-8.531h68.25
		c4.709,0,8.531,3.813,8.531,8.531v119.437c0,2.832-1.408,5.477-3.745,7.064C259.366,417.65,257.702,418.153,256.013,418.153z
		 M221.888,386.784l25.594,10.237v-98.305h-51.187v29.561l21.797,14.529c2.372,1.587,3.796,4.249,3.796,7.098V386.784z"/>
	<path class="st0" d="M187.763,298.717c-1.902,0-3.788-0.631-5.332-1.868l-42.656-34.125c-2.022-1.621-3.199-4.078-3.199-6.663
		v-42.656H76.858v-17.062h68.25c4.709,0,8.531,3.822,8.531,8.531v47.092l25.594,20.466v-33.434c0-4.709,3.822-8.531,8.531-8.531
		h59.718v-30.593l-25.594-25.594v4.999c0,4.709-3.822,8.531-8.531,8.531h-34.125c-4.709,0-8.531-3.822-8.531-8.531V85.437h17.062
		v85.312h17.062v-17.062c0-3.447,2.082-6.56,5.264-7.883c3.191-1.322,6.851-0.589,9.299,1.851l42.656,42.656
		c1.604,1.604,2.5,3.771,2.5,6.032v42.656c0,4.709-3.822,8.531-8.531,8.531h-59.718v42.656c0,3.284-1.877,6.262-4.837,7.687
		C190.288,298.444,189.026,298.717,187.763,298.717z"/>
	<path class="st0" d="M281.606,170.749L281.606,170.749c-2.269,0-4.436-0.896-6.032-2.5l-25.594-25.594
		c-1.604-1.604-2.5-3.771-2.5-6.032v-68.25h17.062v64.718l17.062,17.062l62.218-62.218l12.063,12.063l-68.25,68.25
		C286.034,169.853,283.867,170.749,281.606,170.749z"/>
	<path class="st0" d="M375.45,332.841h-34.125c-4.718,0-8.531-3.813-8.531-8.531v-81.78l-31.625-31.625
		c-3.336-3.336-3.336-8.727,0-12.063l42.656-42.656c1.604-1.604,3.762-2.5,6.032-2.5h51.187c4.718,0,8.531,3.822,8.531,8.531v76.781
		h25.594c3.259,0,6.228,1.86,7.661,4.786s1.066,6.415-0.93,8.983l-59.718,76.781C380.56,331.622,378.077,332.841,375.45,332.841z
		 M349.856,315.779h21.422l46.444-59.718h-16.679c-4.718,0-8.531-3.822-8.531-8.531v-76.781h-39.124l-34.125,34.125l28.093,28.093
		c1.604,1.604,2.5,3.771,2.5,6.032V315.779z"/>
	<path class="st0" d="M255.936,511.997c-68.335,0-132.583-26.6-180.921-74.904C26.669,388.772,0.017,324.498,0,256.137
		c-0.009-36.804,7.704-72.464,22.94-105.975l15.527,7.055c-14.213,31.275-21.413,64.556-21.405,98.919
		c0.017,63.805,24.886,123.788,70.024,168.884c45.113,45.087,105.079,69.913,168.85,69.913c0.026,0,0.051,0,0.077,0
		c13.752,0,27.616-1.194,41.197-3.549l2.918,16.815c-14.546,2.525-29.381,3.796-44.106,3.796
		C255.987,511.997,255.962,511.997,255.936,511.997z"/>
	<path class="st0" d="M322.906,503.175l-4.445-16.482c9.521-2.568,18.999-5.784,28.161-9.546l6.484,15.783
		C343.27,496.965,333.118,500.411,322.906,503.175z"/>
	<path class="st0" d="M489.085,361.967l-15.527-7.064c21.004-46.154,26.779-98.885,16.252-148.468
		C462.502,77.588,335.43-5.028,206.6,22.289l-3.54-16.687c138.086-29.296,274.176,59.241,303.446,197.293
		C517.767,256.027,511.59,312.52,489.085,361.967z"/>
	<path class="st0" d="M165.318,35.009l-6.296-15.86c8.608-3.421,17.523-6.398,26.506-8.838l4.47,16.465
		C181.638,29.054,173.337,31.827,165.318,35.009z"/>
	<path class="st0" d="M51.264,145.155c-2.184,0-4.368-0.836-6.032-2.5L2.576,99.999c-2.44-2.44-3.174-6.108-1.851-9.299
		c1.322-3.191,4.436-5.264,7.883-5.264h30.883l47.314-42.042c18.53-16.405,46.785-15.587,64.325,1.868
		c1.655,1.647,2.559,3.907,2.508,6.236c-0.051,2.338-1.058,4.547-2.79,6.117l-93.843,85.312
		C55.376,144.421,53.32,145.155,51.264,145.155z M29.202,102.499l22.343,22.343l80.151-72.865
		c-10.707-5.511-24.126-4.18-33.57,4.189l-49.728,44.183c-1.561,1.391-3.575,2.15-5.665,2.15H29.202z"/>
	<path class="st0" d="M394.065,480.508c-12.038,0-24.049-4.573-33.169-13.65c-1.655-1.647-2.568-3.907-2.517-6.236
		c0.06-2.329,1.066-4.547,2.79-6.125l93.843-85.312c3.378-3.054,8.565-2.952,11.773,0.282l42.656,42.656
		c2.44,2.44,3.174,6.108,1.851,9.299c-1.314,3.191-4.436,5.264-7.883,5.264h-30.883l-47.306,42.033
		C416.331,476.601,405.181,480.508,394.065,480.508z M380.329,460.144c10.715,5.511,24.135,4.163,33.579-4.189l49.72-44.175
		c1.561-1.391,3.575-2.158,5.665-2.158h13.53l-22.343-22.343L380.329,460.144z"/>
</g>
</svg>